<svg id="visual" viewBox="0 0 1440 800" width="1440" height="800" xmlns="http://www.w3.org/2000/svg" xmlns:xlink="http://www.w3.org/1999/xlink" version="1.1"><rect x="0" y="0" width="1440" height="800" fill="#001220"></rect><defs><linearGradient id="grad1_0" x1="44.4%" y1="100%" x2="100%" y2="0%"><stop offset="13.999999999999998%" stop-color="#fbae3c" stop-opacity="1"></stop><stop offset="86%" stop-color="#fbae3c" stop-opacity="1"></stop></linearGradient></defs><defs><linearGradient id="grad1_1" x1="44.4%" y1="100%" x2="100%" y2="0%"><stop offset="13.999999999999998%" stop-color="#fbae3c" stop-opacity="1"></stop><stop offset="86%" stop-color="#cc5867" stop-opacity="1"></stop></linearGradient></defs><defs><linearGradient id="grad1_2" x1="44.4%" y1="100%" x2="100%" y2="0%"><stop offset="13.999999999999998%" stop-color="#593762" stop-opacity="1"></stop><stop offset="86%" stop-color="#cc5867" stop-opacity="1"></stop></linearGradient></defs><defs><linearGradient id="grad1_3" x1="44.4%" y1="100%" x2="100%" y2="0%"><stop offset="13.999999999999998%" stop-color="#593762" stop-opacity="1"></stop><stop offset="86%" stop-color="#001220" stop-opacity="1"></stop></linearGradient></defs><defs><linearGradient id="grad2_0" x1="0%" y1="100%" x2="55.6%" y2="0%"><stop offset="13.999999999999998%" stop-color="#fbae3c" stop-opacity="1"></stop><stop offset="86%" stop-color="#fbae3c" stop-opacity="1"></stop></linearGradient></defs><defs><linearGradient id="grad2_1" x1="0%" y1="100%" x2="55.6%" y2="0%"><stop offset="13.999999999999998%" stop-color="#cc5867" stop-opacity="1"></stop><stop offset="86%" stop-color="#fbae3c" stop-opacity="1"></stop></linearGradient></defs><defs><linearGradient id="grad2_2" x1="0%" y1="100%" x2="55.6%" y2="0%"><stop offset="13.999999999999998%" stop-color="#cc5867" stop-opacity="1"></stop><stop offset="86%" stop-color="#593762" stop-opacity="1"></stop></linearGradient></defs><defs><linearGradient id="grad2_3" x1="0%" y1="100%" x2="55.6%" y2="0%"><stop offset="13.999999999999998%" stop-color="#001220" stop-opacity="1"></stop><stop offset="86%" stop-color="#593762" stop-opacity="1"></stop></linearGradient></defs><g transform="translate(1440, 800)"><path d="M-480 0C-475.4 -27.6 -470.8 -55.2 -462.9 -81.6C-454.9 -108 -443.7 -133.1 -432.3 -157.3C-420.8 -181.6 -409.1 -204.9 -398.4 -230C-387.7 -255.1 -378 -282 -360.8 -302.8C-343.6 -323.5 -318.7 -338.1 -295.7 -352.4C-272.6 -366.6 -251.3 -380.5 -230.5 -399.2C-209.7 -418 -189.4 -441.7 -164.2 -451.1C-139 -460.4 -108.9 -455.5 -80.7 -457.9C-52.6 -460.4 -26.3 -470.2 0 -480L0 0Z" fill="#232745"></path><path d="M-360 0C-356.5 -20.7 -353.1 -41.4 -347.1 -61.2C-341.2 -81 -332.8 -99.8 -324.2 -118C-315.6 -136.2 -306.8 -153.7 -298.8 -172.5C-290.8 -191.3 -283.5 -211.5 -270.6 -227.1C-257.7 -242.6 -239.1 -253.6 -221.8 -264.3C-204.5 -275 -188.5 -285.4 -172.9 -299.4C-157.3 -313.5 -142 -331.3 -123.1 -338.3C-104.2 -345.3 -81.7 -341.6 -60.6 -343.5C-39.4 -345.3 -19.7 -352.6 0 -360L0 0Z" fill="#96446e"></path><path d="M-240 0C-237.7 -13.8 -235.4 -27.6 -231.4 -40.8C-227.5 -54 -221.9 -66.6 -216.1 -78.7C-210.4 -90.8 -204.5 -102.4 -199.2 -115C-193.8 -127.6 -189 -141 -180.4 -151.4C-171.8 -161.8 -159.4 -169.1 -147.8 -176.2C-136.3 -183.3 -125.7 -190.2 -115.3 -199.6C-104.8 -209 -94.7 -220.8 -82.1 -225.5C-69.5 -230.2 -54.5 -227.7 -40.4 -229C-26.3 -230.2 -13.1 -235.1 0 -240L0 0Z" fill="#f17c53"></path><path d="M-120 0C-118.8 -6.9 -117.7 -13.8 -115.7 -20.4C-113.7 -27 -110.9 -33.3 -108.1 -39.3C-105.2 -45.4 -102.3 -51.2 -99.6 -57.5C-96.9 -63.8 -94.5 -70.5 -90.2 -75.7C-85.9 -80.9 -79.7 -84.5 -73.9 -88.1C-68.2 -91.7 -62.8 -95.1 -57.6 -99.8C-52.4 -104.5 -47.3 -110.4 -41 -112.8C-34.7 -115.1 -27.2 -113.9 -20.2 -114.5C-13.1 -115.1 -6.6 -117.5 0 -120L0 0Z" fill="#fbae3c"></path></g><g transform="translate(0, 0)"><path d="M480 0C468 26.2 455.9 52.4 451 79.5C446.2 106.7 448.5 134.8 442.6 161.1C436.7 187.4 422.6 212 407.9 235.5C393.2 259 377.9 281.5 361.6 303.4C345.2 325.3 327.7 346.8 307.9 366.9C288.1 387.1 265.9 406 240 415.7C214.1 425.4 184.5 425.8 158 434.1C131.6 442.5 108.3 458.8 82.5 467.8C56.7 476.8 28.3 478.4 0 480L0 0Z" fill="#232745"></path><path d="M360 0C351 19.6 341.9 39.3 338.3 59.6C334.6 80 336.4 101.1 331.9 120.8C327.5 140.6 316.9 159 305.9 176.6C294.9 194.3 283.5 211.1 271.2 227.5C258.9 244 245.8 260.1 230.9 275.2C216.1 290.3 199.4 304.5 180 311.8C160.6 319 138.3 319.3 118.5 325.6C98.7 331.9 81.2 344.1 61.9 350.8C42.5 357.6 21.3 358.8 0 360L0 0Z" fill="#96446e"></path><path d="M240 0C234 13.1 228 26.2 225.5 39.8C223.1 53.3 224.2 67.4 221.3 80.5C218.3 93.7 211.3 106 203.9 117.7C196.6 129.5 189 140.7 180.8 151.7C172.6 162.7 163.9 173.4 153.9 183.5C144 193.6 133 203 120 207.8C107 212.7 92.2 212.9 79 217.1C65.8 221.3 54.1 229.4 41.2 233.9C28.3 238.4 14.2 239.2 0 240L0 0Z" fill="#f17c53"></path><path d="M120 0C117 6.5 114 13.1 112.8 19.9C111.5 26.7 112.1 33.7 110.6 40.3C109.2 46.9 105.6 53 102 58.9C98.3 64.8 94.5 70.4 90.4 75.8C86.3 81.3 81.9 86.7 77 91.7C72 96.8 66.5 101.5 60 103.9C53.5 106.3 46.1 106.4 39.5 108.5C32.9 110.6 27.1 114.7 20.6 116.9C14.2 119.2 7.1 119.6 0 120L0 0Z" fill="#fbae3c"></path></g></svg>