<?xml version="1.0" standalone="no"?><svg xmlns="http://www.w3.org/2000/svg" viewBox="0 0 1440 320"><path fill="#0099ff" fill-opacity="1" d="M0,96L9.2,122.7C18.5,149,37,203,55,224C73.8,245,92,235,111,197.3C129.2,160,148,96,166,112C184.6,128,203,224,222,272C240,320,258,320,277,304C295.4,288,314,256,332,245.3C350.8,235,369,245,388,240C406.2,235,425,213,443,202.7C461.5,192,480,192,498,186.7C516.9,181,535,171,554,176C572.3,181,591,203,609,213.3C627.7,224,646,224,665,202.7C683.1,181,702,139,720,133.3C738.5,128,757,160,775,170.7C793.8,181,812,171,831,181.3C849.2,192,868,224,886,234.7C904.6,245,923,235,942,197.3C960,160,978,96,997,101.3C1015.4,107,1034,181,1052,213.3C1070.8,245,1089,235,1108,240C1126.2,245,1145,267,1163,277.3C1181.5,288,1200,288,1218,277.3C1236.9,267,1255,245,1274,250.7C1292.3,256,1311,288,1329,288C1347.7,288,1366,256,1385,208C1403.1,160,1422,96,1431,64L1440,32L1440,320L1430.8,320C1421.5,320,1403,320,1385,320C1366.2,320,1348,320,1329,320C1310.8,320,1292,320,1274,320C1255.4,320,1237,320,1218,320C1200,320,1182,320,1163,320C1144.6,320,1126,320,1108,320C1089.2,320,1071,320,1052,320C1033.8,320,1015,320,997,320C978.5,320,960,320,942,320C923.1,320,905,320,886,320C867.7,320,849,320,831,320C812.3,320,794,320,775,320C756.9,320,738,320,720,320C701.5,320,683,320,665,320C646.2,320,628,320,609,320C590.8,320,572,320,554,320C535.4,320,517,320,498,320C480,320,462,320,443,320C424.6,320,406,320,388,320C369.2,320,351,320,332,320C313.8,320,295,320,277,320C258.5,320,240,320,222,320C203.1,320,185,320,166,320C147.7,320,129,320,111,320C92.3,320,74,320,55,320C36.9,320,18,320,9,320L0,320Z"></path></svg>